<svg width="150" height="150" viewBox="0 0 150 150" fill="none" xmlns="http://www.w3.org/2000/svg">
<rect width="150" height="150" fill="#F7F7F5"/>
<path d="M75.5 22.5C104.214 22.5 127.5 46.0006 127.5 75C127.5 103.999 104.214 127.5 75.5 127.5C46.7857 127.5 23.5 103.999 23.5 75C23.5 46.0006 46.7857 22.5 75.5 22.5Z" fill="#F7F7F5" stroke="black"/>
<path d="M88.7751 50.2H97.7351V50.84L93.8951 51.8V93.4L97.7351 94.36V95H84.6151V94.36L88.4551 93.4V55.64L74.6951 95.96H73.7351L58.3751 55.64V92.76L62.5351 94.36V95H52.9351V94.36L57.0951 92.76V52.12L52.9351 50.84V50.2H62.2151L76.2311 87L88.7751 50.2Z" fill="black"/>
</svg>
